HIERARCHY
ROOT root
{
	OFFSET 0.000000 0.000000 0.000000
	CHANNELS 6 Xposition Yposition Zposition Zrotation Yrotation Xrotation
	JOINT lhip
	{
		OFFSET 0.058581 -0.082280 -0.017664
		CHANNELS 3 Zrotation Yrotation Xrotation
		JOINT lknee
		{
			OFFSET 0.043451 -0.386469 0.008037
			CHANNELS 3 Zrotation Yrotation Xrotation
			JOINT lankle
			{
				OFFSET -0.014790 -0.426874 -0.037428
				CHANNELS 3 Zrotation Yrotation Xrotation
				JOINT ltoe
				{
					OFFSET 0.041054 -0.060286 0.122042
					CHANNELS 3 Zrotation Yrotation Xrotation
					End Site
					{
						OFFSET 0.000000 0.000000 0.000000
					}
				}
			}
		}
	}
	JOINT rhip
	{
		OFFSET -0.060310 -0.090513 -0.013543
		CHANNELS 3 Zrotation Yrotation Xrotation
		JOINT rknee
		{
			OFFSET -0.043257 -0.383688 -0.004843
			CHANNELS 3 Zrotation Yrotation Xrotation
			JOINT rankle
			{
				OFFSET 0.019056 -0.420046 -0.034562
				CHANNELS 3 Zrotation Yrotation Xrotation
				JOINT rtoe
				{
					OFFSET -0.034840 -0.062106 0.130323
					CHANNELS 3 Zrotation Yrotation Xrotation
					End Site
					{
						OFFSET 0.000000 0.000000 0.000000
					}
				}
			}
		}
	}
	JOINT lowerback
	{
		OFFSET 0.004439 0.124404 -0.038385
		CHANNELS 3 Zrotation Yrotation Xrotation
		JOINT upperback
		{
			OFFSET 0.004488 0.137956 0.026820
			CHANNELS 3 Zrotation Yrotation Xrotation
			JOINT chest
			{
				OFFSET -0.002265 0.056032 0.002855
				CHANNELS 3 Zrotation Yrotation Xrotation
				JOINT lowerneck
				{
					OFFSET -0.013390 0.211636 -0.033468
					CHANNELS 3 Zrotation Yrotation Xrotation
					JOINT upperneck
					{
						OFFSET 0.010113 0.088937 0.050410
						CHANNELS 3 Zrotation Yrotation Xrotation
						End Site
						{
							OFFSET 0.000000 0.000000 0.000000
						}
					}
				}
				JOINT lclavicle
				{
					OFFSET 0.071702 0.114000 -0.018898
					CHANNELS 3 Zrotation Yrotation Xrotation
					JOINT lshoulder
					{
						OFFSET 0.122921 0.045205 -0.019046
						CHANNELS 3 Zrotation Yrotation Xrotation
						JOINT lelbow
						{
							OFFSET 0.255332 -0.015649 -0.022946
							CHANNELS 3 Zrotation Yrotation Xrotation
							JOINT lwrist
							{
								OFFSET 0.265709 0.012698 -0.007375
								CHANNELS 3 Zrotation Yrotation Xrotation
								End Site
								{
									OFFSET 0.000000 0.000000 0.000000
								}
							}
						}
					}
				}
				JOINT rclavicle
				{
					OFFSET -0.082954 0.112472 -0.023707
					CHANNELS 3 Zrotation Yrotation Xrotation
					JOINT rshoulder
					{
						OFFSET -0.113228 0.046853 -0.008472
						CHANNELS 3 Zrotation Yrotation Xrotation
						JOINT relbow
						{
							OFFSET -0.260127 -0.014369 -0.031269
							CHANNELS 3 Zrotation Yrotation Xrotation
							JOINT rwrist
							{
								OFFSET -0.269108 0.006794 -0.006027
								CHANNELS 3 Zrotation Yrotation Xrotation
								End Site
								{
									OFFSET 0.000000 0.000000 0.000000
								}
							}
						}
					}
				}
			}
		}
	}
}
MOTION
Frames: 13
Frame Time: 0.033333
0.000067 0.434387 1.015501 64.156318 -3.754006 109.174414 8.758402 -3.452298 -31.042198 -3.802342 -7.481713 44.495304 -5.155495 2.562924 16.004144 0.000000 -0.000000 0.000000 -2.142172 9.486492 -40.213931 -2.615226 3.391289 25.964607 -2.562983 -4.347856 -13.731934 0.000000 -0.000000 0.000000 -0.082691 -2.123991 25.617408 1.517752 0.665480 -8.285846 1.729639 -1.143427 -4.427137 -10.242348 2.634013 1.716459 1.248290 2.563747 0.462799 -14.107181 3.508645 11.125138 -65.375067 7.022462 5.591558 -15.055441 -19.505203 7.324274 -10.540701 -18.577940 -25.530713 14.349334 3.556270 8.987884 67.047435 -9.170103 12.751131 0.525280 28.697469 -1.237618 27.314081 17.171778 -33.622334 
0.001017 0.434196 1.013404 64.047032 -3.816538 109.075111 8.545369 -3.145009 -30.702692 -3.849264 -7.680720 44.689671 -5.184006 2.773115 13.762299 0.000000 -0.000000 0.000000 -1.850133 8.930488 -39.742776 -2.684613 3.646517 25.573722 -2.017500 -3.779436 -14.799236 0.000000 -0.000000 0.000000 0.130492 -1.960029 24.543607 1.292759 0.634511 -8.379545 1.497823 -1.000026 -4.186625 -10.000732 2.819117 0.268529 1.667067 2.025339 -1.484119 -14.180313 3.675753 10.727811 -65.226676 7.243182 5.200383 -14.917297 -19.102366 7.293823 -11.292335 -18.779849 -25.199810 14.464315 3.074815 8.642375 67.619931 -9.454820 12.063598 -0.161142 28.091250 -1.305906 28.089845 17.091722 -32.821823 
0.002360 0.433578 1.011492 63.814046 -3.794390 109.203103 8.426436 -2.763739 -30.485367 -3.915615 -8.216347 44.791139 -4.915108 2.077459 12.974876 0.000000 -0.000000 0.000000 -1.405409 8.471040 -38.963104 -2.683312 4.289881 24.191384 -2.863748 -4.077644 -16.263869 0.000000 -0.000000 0.000000 0.374299 -1.853342 23.107199 0.925594 0.652166 -8.620711 1.280881 -0.713292 -4.854534 -10.036835 2.551498 0.935047 2.229081 2.242973 -1.125034 -13.916162 2.739993 11.643030 -65.898038 7.495503 4.924950 -14.414059 -18.384922 6.982388 -9.408312 -19.172191 -26.499596 13.859151 4.432955 10.009078 69.540555 -9.258063 11.387176 -0.752958 26.207816 -1.719248 27.190399 16.843300 -33.463870 
0.003737 0.432766 1.009872 63.163767 -3.667364 108.923360 8.582705 -2.398355 -30.007720 -4.254222 -8.039110 45.408099 -4.764108 2.034206 12.130625 0.000000 -0.000000 0.000000 -1.101150 8.762061 -38.404422 -2.857075 4.689974 24.026984 -3.246192 -3.924576 -17.038722 0.000000 -0.000000 0.000000 0.293450 -1.410266 22.039120 0.749407 0.855713 -8.689874 1.273550 -0.393853 -5.857016 -10.142754 2.755765 2.074036 2.343065 2.054401 0.899805 -13.439391 1.204439 12.714899 -66.673945 7.708389 4.641612 -14.454098 -17.599893 6.958206 -8.457929 -18.999687 -27.261389 13.586696 6.296891 11.365463 70.726572 -8.941964 11.052822 -0.744083 24.254347 -1.334482 26.645770 17.231289 -34.257838 
0.005918 0.432448 1.008343 63.023155 -3.429895 108.361642 8.685552 -2.006991 -29.528224 -4.205132 -8.163694 45.911551 -5.016022 1.666845 12.526095 0.000000 -0.000000 0.000000 -0.907697 8.878707 -37.868013 -2.716731 4.492107 24.464283 -3.340549 -3.628763 -17.425974 0.000000 -0.000000 0.000000 0.499019 -1.330189 21.279065 0.872369 0.990487 -8.819675 1.330402 -0.259618 -7.266677 -10.333430 3.245436 3.887224 2.016816 2.681800 3.290197 -13.264857 0.113392 14.309157 -67.177588 7.690338 3.960757 -14.612037 -16.892847 7.181910 -8.913647 -18.947189 -27.176968 13.395990 7.265107 13.220288 71.546696 -8.427157 10.122351 -0.944254 22.780020 -1.027555 26.839177 17.535055 -34.973377 
0.006099 0.432429 1.007393 63.125523 -3.234901 108.012739 9.178815 -2.645667 -29.482873 -4.723929 -7.654385 46.550839 -3.788721 1.773079 13.991490 0.000000 -0.000000 0.000000 -1.261318 9.256182 -38.113214 -1.823215 4.185055 25.633686 -3.525042 -4.166741 -17.541686 0.000000 -0.000000 0.000000 0.423728 -1.387129 19.866011 1.374623 0.936014 -8.471696 1.376455 -0.115212 -8.026988 -10.412125 4.086930 4.448676 2.181176 3.388599 5.562693 -12.690417 -1.256177 15.554237 -67.839201 7.493632 4.468671 -15.366266 -16.911835 7.980814 -6.946268 -19.359349 -28.646575 12.863608 8.165023 14.502206 72.782087 -8.166253 9.798896 -1.592367 21.819781 -1.775155 26.350851 18.062716 -36.146817 
0.010132 0.430456 1.008037 63.349917 -2.758729 106.868714 9.232074 -2.387576 -28.248934 -4.259099 -8.500861 46.868963 -4.322193 1.195067 14.611928 0.000000 -0.000000 0.000000 -0.086003 8.880048 -35.716401 -2.043578 4.815768 24.371348 -3.860263 -4.226548 -18.246591 0.000000 -0.000000 0.000000 0.862685 -1.379522 19.116464 1.606203 0.632574 -7.181092 1.572160 -0.011872 -9.342408 -10.523753 4.682124 3.790902 2.299393 4.419482 4.446910 -12.702681 -1.569990 15.591804 -67.483583 8.005781 3.943093 -16.607442 -16.471110 8.569187 -7.893742 -19.611632 -27.946388 12.815624 7.976502 14.641803 72.678305 -8.930111 8.959022 -1.232516 21.989330 -1.647686 26.608598 17.675006 -35.271316 
0.011992 0.429675 1.006779 62.605320 -3.189966 107.239305 8.707532 -2.870319 -28.385942 -4.657089 -8.643367 47.133705 -4.130793 1.556620 14.662220 0.000000 -0.000000 0.000000 -0.296394 9.150449 -35.754207 -2.078673 5.664117 24.017530 -4.141624 -5.292004 -18.980230 0.000000 -0.000000 0.000000 0.098850 -1.077839 17.195190 1.501142 0.725102 -7.785697 1.547834 -0.131049 -8.327237 -10.142936 5.454911 -0.857731 2.230280 4.585274 2.742167 -11.724200 -0.720144 15.177032 -67.468744 8.472742 4.423456 -17.518735 -17.299471 10.551459 -6.217917 -19.529710 -29.320293 12.015261 6.993093 14.143153 73.535943 -9.267151 9.794975 -1.607421 22.504739 -1.149735 26.077693 17.359865 -36.635651 
0.015986 0.428755 1.007003 61.904148 -3.110836 107.077080 8.644707 -3.404702 -27.366486 -5.011484 -8.601301 46.711059 -3.703005 2.412547 14.316333 0.000000 -0.000000 0.000000 -0.137261 9.361919 -35.096088 -1.853998 6.166773 23.614783 -4.210286 -5.917009 -19.170069 0.000000 -0.000000 0.000000 0.168353 -0.912796 16.169508 1.168281 0.904664 -7.992703 1.425018 -0.056056 -8.246186 -10.354877 5.387026 -7.092452 2.274197 4.805978 0.895224 -11.591160 -0.865353 14.560847 -67.633479 9.562477 5.055225 -17.780883 -17.635821 10.064233 -3.222569 -19.347849 -30.611665 11.977946 7.299114 13.408607 73.956638 -10.248307 10.385291 -1.982226 21.964427 -2.112601 26.874322 17.596007 -36.784276 
0.019263 0.427676 1.007904 61.305557 -2.777107 106.787016 8.766135 -3.389089 -26.431734 -5.316595 -8.675896 46.356384 -3.470439 3.012846 14.776423 0.000000 -0.000000 0.000000 -0.097254 9.800422 -34.535855 -1.274406 6.404567 23.638475 -4.352897 -6.046376 -19.129303 0.000000 -0.000000 0.000000 0.322987 -0.984646 15.361904 1.004332 1.067295 -8.485254 1.498332 0.152407 -8.150492 -10.624129 5.337206 -12.678533 2.044694 5.357952 -1.318397 -11.399112 -1.729334 14.380650 -68.395431 10.337949 5.342588 -17.535938 -17.529463 9.904589 -0.832748 -19.408936 -31.756461 11.664625 8.435743 12.928974 74.992736 -10.902123 10.756401 -2.705666 20.754147 -2.816065 27.408497 18.645830 -37.401507 
0.023663 0.426342 1.008915 60.819462 -2.693160 106.292193 8.444094 -3.313616 -25.255336 -5.383955 -9.084403 45.994069 -3.446096 3.224389 15.407609 0.000000 -0.000000 0.000000 0.318888 9.926564 -33.469947 -1.277505 6.983324 23.314669 -4.877922 -6.451522 -19.581692 0.000000 -0.000000 0.000000 0.248840 -0.942002 14.334502 0.912214 1.002384 -8.372689 1.689187 0.146919 -8.680641 -10.386502 4.843252 -16.957917 2.068722 5.521606 -1.999440 -11.138855 -2.294488 13.910073 -68.741055 10.796039 4.844668 -17.856814 -16.414770 10.047416 -1.190987 -18.268865 -29.713943 11.258396 9.525709 12.488710 76.438801 -10.833174 10.515509 -3.845267 18.289842 -4.205283 29.040665 18.410873 -35.907682 
0.028393 0.424496 1.008990 60.515122 -2.558076 105.659414 8.497958 -3.123542 -24.150947 -5.203506 -8.583800 45.815107 -3.624007 3.500347 15.579765 0.000000 -0.000000 0.000000 1.052402 10.049624 -31.926034 -1.819504 7.846951 22.734142 -5.291882 -6.767205 -20.111899 0.000000 -0.000000 0.000000 0.207740 -0.775917 12.593380 1.150367 0.957205 -7.748349 1.542376 0.084349 -7.894228 -9.810291 4.370590 -20.128169 2.257878 4.277260 -5.177464 -10.849142 -1.885445 13.064696 -68.397262 10.746403 5.551036 -17.830450 -16.677386 10.672796 -1.525768 -18.794311 -30.344349 11.480845 9.102668 11.054382 76.529141 -10.827606 11.129803 -4.694076 16.732726 -4.805696 29.183932 17.764065 -35.745332 
0.032335 0.422870 1.010017 59.983748 -2.616841 105.182946 8.478213 -3.679698 -22.792892 -5.849317 -8.464188 45.070554 -3.677661 4.251732 15.745874 0.000000 -0.000000 0.000000 1.017173 10.098107 -30.937544 -1.505432 8.345748 22.443999 -5.193563 -7.190998 -20.361433 0.000000 -0.000000 0.000000 -0.180464 -0.172186 11.404960 1.230788 1.181068 -7.727596 1.611490 -0.241623 -6.343330 -9.094305 3.101599 -25.378885 2.518488 2.590386 -9.884627 -11.072424 -1.273260 12.024056 -68.127733 10.975144 6.344312 -17.269647 -17.697648 10.471335 -0.301396 -18.435740 -30.290641 11.933068 8.417140 9.119877 76.351567 -11.756313 11.503253 -6.113830 16.597215 -6.438864 29.452523 16.884327 -34.440597 
